<svg xmlns="http://www.w3.org/2000/svg" viewBox="0 0 1024 719.5"><defs><style>.cls-1{fill:#0f1118;}</style></defs><g id="Layer_2" data-name="Layer 2"><g id="Layer_1-2" data-name="Layer 1"><path class="cls-1" d="M934.19,48.1a24.37,24.37,0,0,0-48.07,7.14c10.81,149.78-23.76,297-94.35,412.61C723.12,358.84,638.22,207.4,538.58,16.1a30,30,0,0,0-53.16,0C385.33,208.31,300.08,360.28,231.28,469.4,160.85,353.55,126.54,205.78,137.72,55.92a24.35,24.35,0,0,0-48-7.22c-125.49,547.85-96.09,644-50.82,665.88,33.89,16.36,83.46-1.17,193.57-164.55q14.12,18.09,29.43,34.8c74.06,80.56,163.61,127.19,245.68,128,82.71,1.4,174-45,249.68-125.6,11.6-12.32,22.67-25.28,33.21-38.76,90.42,134.47,140.26,171,174,171a46.81,46.81,0,0,0,20.67-4.92C1030.42,692.74,1059.78,596.47,934.19,48.1ZM187.48,536.24C87.32,682.73,58.6,674.34,58.37,674.23c-5.47-2.65-45.79-36.76,39.9-454.36,14.82,106.82,51.35,207.4,106.22,291.05Q195.82,524.14,187.48,536.24Zm537.11,20.29C657.94,627.41,579.77,668,509.71,668H508c-69.71-.68-147.39-42-213.06-113.47a520.75,520.75,0,0,1-36.31-44.21C322.49,410.72,404.71,267,512,62.08,618.72,265.93,700.6,409.17,764.38,508.66A524,524,0,0,1,724.59,556.53Zm241.07,117.7c-.3.15-29,8.5-129.15-138q-8.78-12.81-18-26.86C873.65,425.61,910.38,325,925.34,218,1011.53,637.31,971.1,671.58,965.66,674.23Z"/></g></g></svg>